<svg id="_x33_0" enable-background="new 0 0 64 64" style="fill:#6c757d" height="512" viewBox="0 0 64 64" width="512" xmlns="http://www.w3.org/2000/svg"><g><path d="m31 39h2.656l-2.614 8.713-.042.287c0 2.757 2.243 5 5 5s5-2.243 5-5l-2.661-9h4.661v18h-4v2h10v-2h-4v-18h4.656l-2.614 8.713-.042.287c0 2.757 2.243 5 5 5s5-2.243 5-5l-2.661-9h2.661v-2h-26zm5 12c-1.302 0-2.4-.839-2.814-2h5.628c-.414 1.161-1.512 2-2.814 2zm2.656-4h-5.312l2.4-8h.512zm13.344 4c-1.302 0-2.4-.839-2.814-2h5.628c-.414 1.161-1.512 2-2.814 2zm2.656-4h-5.312l2.4-8h.512z"/><path d="m60 1h-44c-3.86 0-7 3.14-7 7v7.196c-.573.235-1.053.672-1.342 1.251l-6.658 13.317v31.236c0 1.103.897 2 2 2h53c3.86 0 7-3.14 7-7v-52c0-1.654-1.346-3-3-3zm-43 12v-4h2v4zm4-4h2v4h-2zm4 0h2v4h-2zm4 0h2v4h-2zm4 0h2v4h-2zm4 0h2v4h-2zm4 0h2v4h-2zm4 0h2v4h-2zm4 .05 3.555 3.95h-3.555zm-2.755-6.05h5.287l9.468 11.362v5.032zm14.755 1v7.238l-6.865-8.238h5.865c.551 0 1 .449 1 1zm-51.553 13.341c.211-.421.895-.421 1.105 0l1.83 3.659h-4.764zm-5.829 11.659 3-6h6.764l3 6zm-.618 2h6v30h-6zm8 30v-30h6v30zm45 0h-37v-31.236l-6.658-13.316c-.289-.579-.769-1.016-1.342-1.251v-7.197c0-2.757 2.243-5 5-5h27.555l3.6 4h-32.155v8h39.355l6.645 7.384v33.616c0 2.757-2.243 5-5 5z"/><path d="m21 17h10v2h-10z"/><path d="m33 17h8v2h-8z"/><path d="m21 21h20v2h-20z"/><path d="m21 25h4v2h-4z"/><path d="m27 25h14v2h-14z"/><path d="m49.906 28.492-2.199-2.199-1.414 1.414 3.801 3.801 7.696-9.894-1.58-1.228z"/><path d="m55 33h-10v-10h6v-2h-8v14h14v-8h-2z"/><path d="m21 29h20v2h-20z"/><path d="m21 33h2v2h-2z"/><path d="m25 33h2v2h-2z"/><path d="m29 33h2v2h-2z"/><path d="m33 33h2v2h-2z"/><path d="m37 33h2v2h-2z"/></g></svg>